HIERARCHY
ROOT Hips
{
  OFFSET -35.2597 29.1586 114.425
  CHANNELS 6 Xposition Yposition Zposition Zrotation Xrotation Yrotation
  JOINT LeftUpLeg
  {
    OFFSET 8.64259 1.95398 -2.38835
    CHANNELS 3 Zrotation Xrotation Yrotation
    JOINT LeftLeg
    {
      OFFSET 43.7702 0 0
      CHANNELS 3 Zrotation Xrotation Yrotation
      JOINT LeftFoot
      {
        OFFSET 40.6238 0 0
        CHANNELS 3 Zrotation Xrotation Yrotation
        JOINT LeftToeBase
        {
          OFFSET 12.7242 0 0
          CHANNELS 3 Zrotation Xrotation Yrotation
          End Site
          {
            OFFSET 0 0 0
          }
        }
      }
    }
  }
  JOINT RightUpLeg
  {
    OFFSET -8.2249 1.95398 -2.59336
    CHANNELS 3 Zrotation Xrotation Yrotation
    JOINT RightLeg
    {
      OFFSET 43.5653 0 0
      CHANNELS 3 Zrotation Xrotation Yrotation
      JOINT RightFoot
      {
        OFFSET 40.6238 0 0
        CHANNELS 3 Zrotation Xrotation Yrotation
        JOINT RightToeBase
        {
          OFFSET 12.7242 0 0
          CHANNELS 3 Zrotation Xrotation Yrotation
          End Site
          {
            OFFSET 0 0 0
          }
        }
      }
    }
  }
  JOINT Spine
  {
    OFFSET 0.165834 0.87714 6.61349
    CHANNELS 3 Zrotation Xrotation Yrotation
    JOINT Spine1
    {
      OFFSET 7.38963 1.71661e-005 0
      CHANNELS 3 Zrotation Xrotation Yrotation
      JOINT Spine2
      {
        OFFSET 11.9445 1.14441e-005 0
        CHANNELS 3 Zrotation Xrotation Yrotation
        JOINT Spine3
        {
          OFFSET 14.7254 4.19617e-005 0
          CHANNELS 3 Zrotation Xrotation Yrotation
          JOINT Spine4
          {
            OFFSET 10.9679 0 0
            CHANNELS 3 Zrotation Xrotation Yrotation
            JOINT RightShoulder
            {
              OFFSET 2.46616 -1.6653 3.69651
              CHANNELS 3 Zrotation Xrotation Yrotation
              JOINT RightArm
              {
                OFFSET 13.0012 0 0
                CHANNELS 3 Zrotation Xrotation Yrotation
                JOINT RightForeArm
                {
                  OFFSET 28.7848 1.62311e-005 0
                  CHANNELS 3 Zrotation Xrotation Yrotation
                  JOINT RightHand
                  {
                    OFFSET 26.5688 1.62095e-005 0
                    CHANNELS 3 Zrotation Xrotation Yrotation
                    End Site
                    {
                      OFFSET 0 0 0
                    }
                  }
                }
              }
            }
            JOINT LeftShoulder
            {
              OFFSET 2.38034 -1.29275 -3.7523
              CHANNELS 3 Zrotation Xrotation Yrotation
              JOINT LeftArm
              {
                OFFSET 16.3182 6.07031e-005 0
                CHANNELS 3 Zrotation Xrotation Yrotation
                JOINT LeftForeArm
                {
                  OFFSET 27.0901 0 0
                  CHANNELS 3 Zrotation Xrotation Yrotation
                  JOINT LeftHand
                  {
                    OFFSET 24.5451 1.51738e-005 0
                    CHANNELS 3 Zrotation Xrotation Yrotation
                    End Site
                    {
                      OFFSET 0 0 0
                    }
                  }
                }
              }
            }
            JOINT Neck
            {
              OFFSET 5.0226 -0.0266342 0
              CHANNELS 3 Zrotation Xrotation Yrotation
              JOINT Head
              {
                OFFSET 6.69364 2.86102e-005 0
                CHANNELS 3 Zrotation Xrotation Yrotation
                End Site
                {
                  OFFSET 0 0 0
                }
              }
            }
          }
        }
      }
    }
  }
}
MOTION
Frames:	9
Frame Time:	0.0416667
138.169 14.9635 116.989 -7.71341 -1.94984 -90.8068 -171.111 2.41485 94.8227 -24.3635 9.01106 -1.70252 58.1606 -1.58343 -2.1502 53.3582 -0.457184 45.471 169.243 -0.862097 83.6822 -25.2916 -15.9778 0.863684 70.5988 -6.77039 -0.0674197 36.8519 -4.32476 4.67534 -0.23225 6.28763 -90.0313 14.2986 -0.475493 0.00339619 2.6278 -0.474881 0.0243393 -19.908 -0.454518 -0.139671 0.104634 -0.454538 -0.13965 96.6616 -0.0187047 -103.964 45.132 68.2305 -4.84702 -40.8126 13.2161 -109.672 -18.8722 7.83208 -51.3936 -82.9879 -14.2948 83.6643 -50.6542 -58.187 -40.9914 46.5953 -14.5471 -104.947 8.1939 -5.06812 -54.7238 33.118 0.479774 -8.91738 -8.53946 3.37934 13.6643 
138.102 14.4107 117.261 -9.74748 -4.04845 -89.3589 -170.699 1.26052 96.707 -25.849 11.7456 -0.991193 59.2008 -1.17224 -1.95817 53.4163 -0.643067 46.1775 168.706 -5.16002 84.6559 -22.2966 -14.3748 1.77982 68.7437 -5.92508 -1.04612 38.7755 -5.48872 7.27675 -0.480966 6.55059 -90.1764 13.7719 -1.03935 -0.215103 2.10138 -1.04782 -0.169142 -20.4365 -0.926656 -0.517535 -0.423809 -0.926658 -0.517545 96.9244 1.77081 -104.229 37.0354 68.1776 -13.0024 -49.9345 7.17475 -99.5397 -31.3313 14.5692 -55.3307 -82.8405 -13.9193 83.9263 -48.932 -57.5858 -37.4306 44.1513 -14.5513 -106.029 10.2586 -5.80748 -52.9409 29.5937 3.44081 0.219382 -0.421625 3.21759 0.0191087 
138.099 14.4997 117.242 -9.41546 -3.86423 -89.5537 -170.784 1.55373 96.4842 -25.7119 11.3957 -1.06363 59.1925 -1.15496 -1.95493 53.3115 -0.965412 46.7635 168.781 -4.53727 84.4931 -22.6565 -14.5395 1.70143 68.7309 -5.85603 -0.884475 37.016 -4.97247 7.63951 -0.414672 6.49231 -90.0717 13.8897 -0.856882 -0.029037 2.21906 -0.857335 0.00871226 -20.3182 -0.808559 -0.285243 -0.30553 -0.808551 -0.285254 96.3587 0.142834 -105.247 37.9149 69.5662 -12.0824 -49.0218 7.69003 -100.354 -28.4101 13.6155 -56.689 -82.7215 -10.655 83.3144 -48.3962 -57.5579 -32.454 44.3482 -16.0813 -107.421 11.5836 -6.13314 -51.0011 28.9163 2.66886 -3.04304 0.0186897 3.74091 2.95726 
138.119 14.5058 117.259 -9.45749 -3.797 -89.7557 -170.876 1.3976 96.2445 -25.6124 11.0338 -1.06356 59.2118 -1.12842 -2.21434 53.4404 -1.12485 47.6001 168.636 -4.39311 84.2313 -22.9115 -14.7704 1.69619 68.8814 -5.9431 -1.0064 38.4646 -5.42496 7.50326 -0.420381 6.4882 -89.9966 13.8983 -0.831657 0.118339 2.22761 -0.825679 0.15482 -20.3097 -0.828773 -0.137117 -0.29701 -0.828781 -0.137098 96.0557 -0.735903 -105.735 38.0378 69.786 -12.6723 -49.3495 7.52818 -100.111 -28.6463 13.7649 -56.7976 -82.8448 -9.55583 82.6613 -49.115 -57.9915 -31.7642 44.6856 -16.6942 -107.824 11.2423 -5.91213 -50.5211 27.8758 2.20489 -4.50345 0.715574 3.8555 3.71774 
138.091 14.5101 117.258 -9.64873 -3.77802 -89.764 -170.818 1.30496 96.2708 -25.8794 11.2174 -1.08415 58.8976 -1.39951 -1.84708 53.2175 -1.40451 47.6883 168.58 -4.72688 84.209 -22.6095 -14.7968 1.68351 68.8154 -5.96366 -1.05947 38.5431 -5.40998 7.28043 -0.437743 6.52699 -89.9951 13.8208 -0.865499 0.124898 2.15016 -0.859141 0.162865 -20.3873 -0.863011 -0.14102 -0.374629 -0.863014 -0.141029 96.1707 0.343178 -106.119 37.4518 70.439 -10.7487 -49.8698 7.89143 -100.315 -29.6031 13.9826 -55.9401 -82.8697 -9.78767 82.6613 -49.5625 -58.3097 -33.0278 44.9365 -16.4115 -107.433 11.0339 -5.86391 -50.8161 28.6839 2.39855 -4.3873 -0.106448 4.00117 3.79916 
138.112 14.5222 117.256 -9.55603 -3.70155 -89.7328 -170.847 1.48066 96.2899 -25.9623 11.2152 -1.07925 59.0852 -1.282 -1.95441 53.5956 -1.77447 49.8448 168.612 -4.64873 84.2595 -22.55 -14.8912 1.67134 68.7754 -5.97726 -1.16963 38.8877 -5.43875 6.79134 -0.450322 6.47199 -89.9161 13.9313 -0.851654 0.282728 2.26056 -0.83839 0.319937 -20.2768 -0.897232 0.0136935 -0.264199 -0.897248 0.0136836 95.4817 -2.28929 -106.677 38.5318 70.2941 -14.1933 -49.8927 7.19279 -99.6574 -28.3566 13.7889 -57.3637 -82.7936 -8.70635 82.5266 -49.1599 -58.0256 -31.1484 44.8451 -16.98 -108.007 11.4107 -6.00931 -50.6885 26.3957 1.79765 -6.25306 1.9513 4.13031 5.14013 
138.138 14.5314 117.257 -9.61399 -3.76314 -89.7278 -170.82 1.34385 96.3219 -25.7685 11.3586 -1.06799 59.1694 -1.17074 -1.93135 53.9815 -1.98122 51.5697 168.616 -4.66378 84.2648 -22.6751 -14.8362 1.68304 68.9503 -6.0517 -1.06186 36.8704 -4.87638 7.39899 -0.483138 6.47904 -89.9057 13.9175 -0.911564 0.311454 2.24684 -0.896966 0.351257 -20.2909 -0.963024 0.023055 -0.278248 -0.963028 0.023056 95.387 -2.04644 -107.202 38.5176 70.7267 -13.8453 -50.2621 7.29115 -99.6584 -28.0799 13.704 -57.5553 -82.5269 -8.48878 83.2115 -49.1356 -57.7296 -30.419 44.5371 -17.3083 -108.474 11.1183 -5.8684 -50.5865 26.7811 1.96792 -6.31114 1.5937 4.31763 5.15206 
138.16 14.5317 117.244 -9.51519 -3.76381 -89.6456 -170.798 1.3994 96.4147 -25.5486 11.3869 -1.06686 58.7435 -1.40776 -1.7822 54.8459 -1.39894 52.8314 168.676 -4.49323 84.3631 -22.8546 -14.7571 1.72011 68.9909 -6.05881 -1.17009 38.0566 -5.2549 7.31755 -0.503687 6.51608 -89.9323 13.8434 -0.965441 0.264345 2.17275 -0.952863 0.306595 -20.3653 -1.00025 -0.0380715 -0.352665 -1.00026 -0.0380524 95.5643 -0.92307 -107.41 37.5953 70.9794 -12.3007 -49.6155 7.22167 -99.7533 -28.7344 13.8417 -56.9052 -82.5514 -9.08928 83.3305 -49.6487 -58.2383 -32.4971 44.5348 -16.6066 -107.82 11.1173 -5.91188 -50.8985 28.4901 2.24935 -5.74437 0.10971 4.38769 4.48246 
138.06 14.5204 117.263 -9.64231 -3.79601 -89.7611 -170.841 1.48038 96.2205 -26.3701 11.2842 -1.0811 59.5861 -0.999126 -1.36862 52.7016 -4.76099 54.5589 168.561 -4.86167 84.2256 -22.3045 -14.7592 1.66352 68.6698 -5.93436 -1.03296 39.3464 -5.65719 7.17196 -0.543701 6.47728 -89.8516 13.9217 -1.00523 0.432683 2.25102 -0.985193 0.476505 -20.2872 -1.08878 0.11054 -0.274531 -1.08879 0.110532 95.1268 -3.20581 -107.267 38.9538 70.0465 -15.4726 -50.4739 7.05642 -99.3912 -28.7053 13.8585 -57.0064 -82.6047 -7.96308 82.8179 -50.2045 -58.6028 -31.49 45.0264 -17.2879 -108.196 10.4296 -5.64316 -51.1277 26.2867 1.99862 -6.85463 2.06944 4.52833 4.81531 
